# xmcd
#
# Track frame offsets: 
#        150
#        27542
#        50385
#        78547
#        102937
#        129982
#        159942
#        186077
#
# Disc length: 2762 seconds
#
# Revision: 3
# Processed by: cddbd v1.5.2PL0 Copyright (c) Steve Scherf et al.
# Submitted via: ExactAudioCopy v0.99pb4
#
DISCID=5e0ac808
DTITLE=Terry Callier - Live At Mother Blues 1964
DYEAR=2000
DGENRE=
TTITLE0=Work Song
TTITLE1=Drill Ye Tarriers
TTITLE2=The Gambler Song
TTITLE3=Lizzy Mae
TTITLE4=Johnny Be Gay
TTITLE5=Be My Woman
TTITLE6=It Will Not Be Long Love, 'till Our Wedding Day
TTITLE7=It's About Time
EXTD=Rare 1964 Live Gig featuring working trio\nSame personnel as hear
EXTD=d on "The New Folk Sound Of Terry Callier"
EXTT0=
EXTT1=
EXTT2=
EXTT3=
EXTT4=
EXTT5=
EXTT6=
EXTT7=
PLAYORDER=
